<svg width="50" height="50" viewBox="0 0 50 50" fill="none" xmlns="http://www.w3.org/2000/svg">
<path d="M0 8C0 3.58172 3.58172 0 8 0H42C46.4183 0 50 3.58172 50 8V42C50 46.4183 46.4183 50 42 50H8C3.58172 50 0 46.4183 0 42V8Z" fill="#F6F7F8"/>
<g clip-path="url(#clip0_0_148)">
<path d="M17.4 10H33.6C37.2 10 40.1 12.9 40.1 16.5V33.5C40.1 37.1 37.2 40 33.6 40H17.4C13.8 40 10.9 37.1 10.9 33.5V16.5C10.9 12.9 13.8 10 17.4 10Z" stroke="#FF5678" stroke-width="1.3"/>
<path d="M22 26.2C23.5 26.2 24.5 25.2 24.5 23.8V21.5C24.5 20.1 23.5 19.1 22 19.1C20.5 19.1 19.5 20.1 19.5 21.5V23.8C19.5 25.2 20.6 26.2 22 26.2ZM22.9 31.5L30.4 20.8L28.9 19.7L21.4 30.4L22.9 31.5ZM22 24.6C21.6 24.6 21.2 24.3 21.2 23.8V21.6C21.1 20.6 22.8 20.6 22.7 21.6V23.8C22.8 24.2 22.5 24.6 22 24.6ZM29.7 32.2C31.2 32.2 32.3 31.2 32.3 29.8V27.5C32.3 26.1 31.2 25.1 29.7 25.1C28.2 25.1 27.2 26.1 27.2 27.5V29.8C27.2 31.2 28.3 32.2 29.7 32.2ZM29.8 30.6C29.3 30.6 29 30.2 29 29.8V27.6C29 27.2 29.3 26.8 29.8 26.8C30.3 26.8 30.6 27.1 30.6 27.6V29.8C30.5 30.3 30.2 30.6 29.8 30.6Z" fill="#FF5678"/>
</g>
<defs>
<clipPath id="clip0_0_148">
<rect width="31" height="32" fill="white" transform="translate(10 9)"/>
</clipPath>
</defs>
</svg>
